<svg width="100" height="123" viewBox="0 0 100 123" fill="none" xmlns="http://www.w3.org/2000/svg">
<g style="mix-blend-mode:overlay">
<path d="M112.5 49.8155H7.5M54.75 71.2745H28.5M7.5 40.1589L7.5 80.931C7.5 86.9401 7.5 89.9447 8.64443 92.2398C9.6511 94.2587 11.2574 95.9001 13.2331 96.9288C15.4792 98.0982 18.4194 98.0982 24.3 98.0982L95.7 98.0983C101.581 98.0983 104.521 98.0983 106.767 96.9288C108.743 95.9001 110.349 94.2587 111.356 92.2398C112.5 89.9447 112.5 86.9401 112.5 80.931V40.1589C112.5 34.1498 112.5 31.1453 111.356 28.8501C110.349 26.8312 108.743 25.1898 106.767 24.1612C104.521 22.9917 101.581 22.9917 95.7 22.9917L24.3 22.9917C18.4195 22.9917 15.4792 22.9917 13.2331 24.1611C11.2574 25.1898 9.6511 26.8312 8.64443 28.8501C7.5 31.1453 7.5 34.1498 7.5 40.1589Z" stroke="white" stroke-width="3" stroke-linecap="round" stroke-linejoin="round"/>
</g>
</svg>
