<svg width="100" height="107" viewBox="0 0 100 107" fill="none" xmlns="http://www.w3.org/2000/svg">
<g clip-path="url(#clip0_59_23)">
<g style="mix-blend-mode:overlay">
<mask id="mask0_59_23" style="mask-type:alpha" maskUnits="userSpaceOnUse" x="1" y="1" width="107" height="107">
<g style="mix-blend-mode:overlay">
<g style="mix-blend-mode:overlay">
<path d="M35.1119 26.3521C34.7537 22.232 28.6632 11.9319 28.6632 7.9014C28.6009 7.24485 28.6843 6.58266 28.9076 5.96211C29.1309 5.34157 29.4885 4.778 29.9548 4.31167C30.4211 3.84534 30.9847 3.48776 31.6053 3.26448C32.2258 3.0412 32.888 2.95773 33.5445 3.02003C38.0229 3.02003 36.0524 6.2892 38.4259 6.2892C40.7994 6.2892 40.3964 3.02003 44.9195 3.02003C49.4426 3.02003 51.4578 9.73751 51.4578 9.73751C51.4578 9.73751 57.9514 9.24489 57.9514 13.0067C57.9514 16.7685 51.9504 22.7246 51.5474 26.4416" stroke="white" stroke-width="3" stroke-linecap="round" stroke-linejoin="round"/>
<path d="M13.1223 81.3905C12.3805 80.5132 11.9687 79.4044 11.958 78.2556C11.958 70.1051 19.3472 58.6854 19.3472 58.6854C19.3472 36.2938 24.5868 25.3667 43.3062 25.3667C62.0255 25.3667 67.2652 36.3386 67.2652 58.7302C69.1147 61.6749 70.7318 64.7594 72.1018 67.9555" stroke="white" stroke-width="3" stroke-linecap="round" stroke-linejoin="round"/>
<path d="M83.6116 70.1949C79.2712 68.778 74.742 68.0232 70.1767 67.9558C63.1009 67.9558 59.0257 72.8371 50.0243 74.6732C41.0228 76.5093 34.3501 78.8829 34.3501 83.6299C34.3501 88.3769 41.605 90.7504 65.6984 83.6299M106.003 61.2383L87.7765 64.8657C86.6589 65.094 85.6706 65.7401 85.0131 66.6722C84.3557 67.6042 84.0787 68.7521 84.2386 69.8814L87.5526 93.1687C87.7047 94.2447 88.2428 95.2287 89.0668 95.9373C89.8907 96.6459 90.9442 97.0307 92.0309 97.02H106.003V61.2383Z" stroke="white" stroke-width="3" stroke-linecap="round" stroke-linejoin="round"/>
<path d="M34.3482 85.8694C27.782 83.7629 21.0362 82.2638 14.1958 81.3911C8.59789 81.3911 3 83.6303 3 88.1086C10.6579 91.4673 37.3487 106.022 47.7832 106.022C58.2177 106.022 85.8489 92.5869 85.8489 92.5869" stroke="white" stroke-width="3" stroke-linecap="round" stroke-linejoin="round"/>
</g>
</g>
</mask>
<g mask="url(#mask0_59_23)">
<g style="mix-blend-mode:overlay">
<path d="M44.1998 60.3577C49.06 60.3577 53 56.4177 53 51.5575C53 46.6973 49.06 42.7573 44.1998 42.7573C39.3396 42.7573 35.3997 46.6973 35.3997 51.5575C35.3997 56.4177 39.3396 60.3577 44.1998 60.3577Z" stroke="white" stroke-width="3"/>
</g>
<path d="M82.5503 -7.30029H-0.751708C-9.03598 -7.30029 -15.7517 -0.584564 -15.7517 7.69971V124.845C-15.7517 133.129 -9.03598 139.845 -0.751708 139.845H82.5503C90.8346 139.845 97.5503 133.129 97.5503 124.845V7.69971C97.5503 -0.584564 90.8346 -7.30029 82.5503 -7.30029Z" fill="#D9D9D9"/>
</g>
<path d="M54.8354 48.2623C54.8354 54.2171 50.0484 59.0246 44.1678 59.0246C38.2872 59.0246 33.5002 54.2171 33.5002 48.2623C33.5002 42.3075 38.2872 37.5 44.1678 37.5C50.0484 37.5 54.8354 42.3075 54.8354 48.2623Z" stroke="white" stroke-width="3"/>
</g>
</g>
<defs>
<clipPath id="clip0_59_23">
<rect width="100" height="107" fill="white"/>
</clipPath>
</defs>
</svg>
