<svg width="113" height="94" viewBox="0 0 113 94" fill="none" xmlns="http://www.w3.org/2000/svg">
<g style="mix-blend-mode:overlay">
<path d="M9.10526 16.2105H103.842C107.632 16.2105 110.947 19.5263 110.947 23.3158V84.8947C110.947 88.6842 107.632 92 103.842 92H9.10526C5.31579 92 2 88.6842 2 84.8947V23.3158C2 19.5263 5.31579 16.2105 9.10526 16.2105ZM42.2632 2H70.6842C74.4737 2 77.7895 5.31579 77.7895 9.10526V16.2105H35.1579V9.10526C35.1579 5.31579 38.4737 2 42.2632 2Z" stroke="white" stroke-width="3" stroke-linecap="round" stroke-linejoin="round"/>
<path d="M2 26.1578C2 42.7367 49.3684 45.1051 49.3684 45.1051M110.947 26.1578C110.947 42.7367 63.5789 45.1051 63.5789 45.1051M56.4737 35.6315C60.2632 35.6315 63.5789 38.9472 63.5789 42.7367V47.4736C63.5789 51.263 60.2632 54.5788 56.4737 54.5788C52.6842 54.5788 49.3684 51.263 49.3684 47.4736V42.7367C49.3684 38.9472 52.6842 35.6315 56.4737 35.6315Z" stroke="white" stroke-width="3" stroke-linecap="round" stroke-linejoin="round"/>
</g>
</svg>
