<svg width="100" height="111" viewBox="0 0 100 111" fill="none" xmlns="http://www.w3.org/2000/svg">
<g style="mix-blend-mode:overlay">
<path d="M31.0003 85.585L10.3973 72.0904C7.97338 70.3603 4.51069 71.0523 2.95248 73.6474C1.22113 76.0696 1.91366 79.5297 4.51068 81.0868L31.3466 98.9067C34.2899 100.81 37.7526 101.329 41.0421 100.118L65.9736 91.8133L71.687 95.6195" stroke="white" stroke-width="2.5" stroke-miterlimit="10" stroke-linecap="round" stroke-linejoin="round"/>
<path d="M53.5073 83.7548L38.311 89.4506C35.5481 90.4862 32.4398 89.1054 31.4037 86.3438C30.3675 83.5822 31.9217 80.4754 34.6847 79.4398L61.2781 69.6016C64.3864 68.3934 67.6674 68.9112 70.4303 70.6372L83.209 78.922" stroke="white" stroke-width="2.5" stroke-miterlimit="10" stroke-linecap="round" stroke-linejoin="round"/>
<path d="M89.0442 82.7724L87.1402 85.5365M27.4217 15.0526C32.4415 17.2984 36.7689 17.6439 40.4039 15.0526M80.263 109L98.5732 81.3178L86.7265 73.5145L68.418 101.195L80.263 109ZM33.9994 5.37831C39.1923 5.37831 43.3466 -2.22289 43.3466 5.37831C43.3466 7.96963 42.308 11.0792 40.4039 15.2253C47.674 24.7268 59.7908 38.0289 59.7908 46.3212C59.7908 59.6233 49.7512 63.5966 36.7689 64.1149H31.0567C18.0744 63.5966 8.03478 59.6233 8.03478 46.3212C8.03478 38.0289 19.9785 24.8996 27.4217 15.2253C25.6907 11.0792 24.479 8.14239 24.479 5.37831C24.479 -2.22289 28.6333 5.37831 33.9994 5.37831Z" stroke="white" stroke-width="2.5" stroke-miterlimit="10" stroke-linecap="round" stroke-linejoin="round"/>
<path d="M40.6867 33.8875L27.0103 52.7574" stroke="white" stroke-width="2.5" stroke-miterlimit="10" stroke-linecap="round" stroke-linejoin="round"/>
<path d="M39.823 52.9309C41.8308 52.9309 43.4585 51.3032 43.4585 49.2954C43.4585 47.2876 41.8308 45.6599 39.823 45.6599C37.8152 45.6599 36.1875 47.2876 36.1875 49.2954C36.1875 51.3032 37.8152 52.9309 39.823 52.9309Z" stroke="white" stroke-width="2.5" stroke-miterlimit="10" stroke-linecap="round" stroke-linejoin="round"/>
<path d="M27.8767 40.9854C29.8845 40.9854 31.5122 39.3577 31.5122 37.3499C31.5122 35.342 29.8845 33.7144 27.8767 33.7144C25.8689 33.7144 24.2412 35.342 24.2412 37.3499C24.2412 39.3577 25.8689 40.9854 27.8767 40.9854Z" stroke="white" stroke-width="2.5" stroke-miterlimit="10" stroke-linecap="round" stroke-linejoin="round"/>
</g>
</svg>
