<svg width="100" height="123" viewBox="0 0 100 123" fill="none" xmlns="http://www.w3.org/2000/svg">
<g style="mix-blend-mode:overlay">
<g style="mix-blend-mode:overlay">
<path d="M52.3525 42.6722C55.2147 44.7573 58.7172 45.9838 62.5 45.9838C72.165 45.9838 80 37.9775 80 28.1013C80 18.225 72.165 10.2188 62.5 10.2188C56.2351 10.2188 50.739 13.5828 47.6475 18.6396M90 102.631H76.9485C75.2469 102.631 73.5556 102.838 71.9059 103.252L58.1155 106.676C55.1233 107.421 52.0061 107.494 48.9826 106.894L33.7351 103.862C29.7073 103.061 26.0021 101.09 23.0983 98.2033L12.3106 87.48C9.22983 84.4228 9.22983 79.462 12.3106 76.3997C15.0842 73.6426 19.4764 73.3322 22.6143 75.6703L35.187 85.0435C36.9876 86.3885 39.1784 87.1127 41.4317 87.1127H53.5725L45.8447 87.1123C41.489 87.1123 37.9607 83.6051 37.9607 79.2755V77.7081C37.9607 74.113 40.4222 70.9782 43.9296 70.1092L55.857 67.1451C57.7981 66.6641 59.786 66.4209 61.7843 66.4209C66.6083 66.4209 75.3405 70.5023 75.3405 70.5023L90 76.7666M20 33.2105C20 43.0868 27.835 51.0931 37.5 51.0931C47.165 51.0931 55 43.0868 55 33.2105C55 23.3343 47.165 15.328 37.5 15.328C27.835 15.328 20 23.3343 20 33.2105ZM110 74.5958L110 104.23C110 107.091 110 108.522 109.455 109.615C108.976 110.576 108.211 111.358 107.27 111.848C106.2 112.405 104.8 112.405 102 112.405H98C95.1997 112.405 93.7996 112.405 92.73 111.848C91.7892 111.358 91.0243 110.576 90.545 109.615C90 108.522 90 107.091 90 104.23V74.5958C90 71.7343 90 70.3036 90.545 69.2107C91.0243 68.2493 91.7892 67.4677 92.73 66.9778C93.7996 66.4209 95.1997 66.4209 98 66.4209L102 66.4209C104.8 66.4209 106.2 66.4209 107.27 66.9778C108.211 67.4677 108.976 68.2493 109.455 69.2107C110 70.3036 110 71.7343 110 74.5958Z" stroke="white" stroke-width="3" stroke-linecap="round" stroke-linejoin="round"/>
</g>
</g>
</svg>
