<svg width="100" height="103" viewBox="0 0 100 103" fill="none" xmlns="http://www.w3.org/2000/svg">
<g style="mix-blend-mode:overlay">
<path d="M69.75 11.3376C69.75 16.7817 65.3738 21.1751 60 21.1751C54.6262 21.1751 50.25 16.7817 50.25 11.3376C50.25 5.89344 54.6262 1.5 60 1.5C65.3738 1.5 69.75 5.89344 69.75 11.3376Z" stroke="white" stroke-width="3"/>
<path d="M96.4584 58.5325C96.4584 67.1847 92.9963 75.0219 87.392 80.714C86.8515 81.263 86.5813 81.5375 86.4217 81.8014C86.2695 82.0533 86.1809 82.2701 86.1129 82.5569C86.0417 82.8575 86.0417 83.1996 86.0417 83.8837V96.3244C86.0417 97.7942 86.0417 98.5291 85.7579 99.0905C85.5082 99.5843 85.1098 99.9858 84.6198 100.237C84.0627 100.523 83.3335 100.523 81.875 100.523H71.9792C70.5207 100.523 69.7915 100.523 69.2344 100.237C68.7444 99.9858 68.346 99.5843 68.0964 99.0905C67.8125 98.5291 67.8125 97.7942 67.8125 96.3244V94.2248C67.8125 92.755 67.8125 92.0201 67.5287 91.4587C67.279 90.9649 66.8806 90.5634 66.3906 90.3118C65.8336 90.0257 65.1043 90.0257 63.6459 90.0257H56.3542C54.8957 90.0257 54.1665 90.0257 53.6094 90.3118C53.1194 90.5634 52.721 90.9649 52.4714 91.4587C52.1875 92.0201 52.1875 92.755 52.1875 94.2248V96.3244C52.1875 97.7942 52.1875 98.5291 51.9037 99.0905C51.654 99.5843 51.2556 99.9858 50.7656 100.237C50.2086 100.523 49.4793 100.523 48.0209 100.523H38.1247C36.6662 100.523 35.937 100.523 35.3799 100.237C34.8899 99.9858 34.4915 99.5843 34.2418 99.0905C33.958 98.5291 33.958 97.7942 33.958 96.3244V91.2032C33.958 90.1426 33.958 89.6123 33.8082 89.1867C33.6646 88.7786 33.4837 88.493 33.1769 88.1899C32.8569 87.8737 32.3148 87.6201 31.2305 87.1127C26.1148 84.7192 21.7494 80.9718 18.5876 76.3271C18.0316 75.5103 17.7536 75.1019 17.4567 74.8607C17.1729 74.63 16.9181 74.4947 16.5687 74.3894C16.2034 74.2791 15.7696 74.2791 14.9021 74.2791H12.083C10.6245 74.2791 9.89529 74.2791 9.33823 73.9931C8.84823 73.7415 8.44985 73.34 8.20018 72.8462C7.91634 72.2848 7.91634 71.5499 7.91634 70.08V52.1591C7.91634 50.7598 7.91634 50.0601 8.17429 49.5204C8.43025 48.9848 8.85904 48.5527 9.39047 48.2948C9.92604 48.0348 10.6203 48.0348 12.0088 48.0348C13.0138 48.0348 13.5163 48.0348 13.9211 47.8973C14.3575 47.749 14.6635 47.5518 14.9802 47.2148C15.2739 46.9022 15.5136 46.3795 15.9931 45.3341C17.532 41.9788 19.6395 38.9426 22.1911 36.351C22.7315 35.8021 23.0018 35.5276 23.1613 35.2636C23.3135 35.0118 23.4021 34.795 23.4701 34.5082C23.5413 34.2075 23.5413 33.8655 23.5413 33.1814V27.3573C23.5413 25.4675 23.5413 24.5225 23.9318 23.8874C24.2739 23.331 24.81 22.9236 25.4348 22.7449C26.148 22.541 27.0496 22.8006 28.8527 23.3198L41.2098 26.8778C41.4198 26.9382 41.5248 26.9685 41.6315 26.9897M96.4584 58.5325C96.4584 46.4388 89.6942 35.9372 79.7707 30.6605M96.4584 58.5325H101.666C107.419 58.5325 112.083 53.8325 112.083 48.0348C112.083 44.1492 109.988 40.7566 106.875 38.9415" stroke="white" stroke-width="3" stroke-linecap="round" stroke-linejoin="round"/>
</g>
</svg>
